<mxfile>
    <diagram id="UTAYyIup_uFbXDbCuDXR" name="Page-1">
        <mxGraphModel dx="1804" dy="1924" grid="1" gridSize="10" guides="1" tooltips="1" connect="1" arrows="1" fold="1" page="1" pageScale="1" pageWidth="827" pageHeight="1169" background="none" math="0" shadow="0">
            <root>
                <mxCell id="0"/>
                <mxCell id="1" parent="0"/>
                <mxCell id="60" style="edgeStyle=orthogonalEdgeStyle;rounded=0;orthogonalLoop=1;jettySize=auto;html=1;exitX=0.5;exitY=0;exitDx=0;exitDy=0;entryX=0.454;entryY=0.994;entryDx=0;entryDy=0;entryPerimeter=0;endArrow=none;endFill=0;" parent="1" source="22" target="59" edge="1">
                    <mxGeometry relative="1" as="geometry">
                        <mxPoint x="290" y="250" as="targetPoint"/>
                    </mxGeometry>
                </mxCell>
                <mxCell id="22" value="Button" style="swimlane;fontStyle=0;align=center;verticalAlign=top;childLayout=stackLayout;horizontal=1;startSize=30;horizontalStack=0;resizeParent=1;resizeParentMax=0;resizeLast=0;collapsible=0;marginBottom=0;html=1;" parent="1" vertex="1">
                    <mxGeometry x="49" y="320" width="270" height="250" as="geometry"/>
                </mxCell>
                <mxCell id="23" value="- x : Integer&lt;br&gt;- y : Integer&lt;br&gt;- name : String&lt;br&gt;- color :&amp;nbsp;" style="text;html=1;strokeColor=none;fillColor=none;align=left;verticalAlign=top;spacingLeft=4;spacingRight=4;overflow=hidden;rotatable=0;points=[[0,0.5],[1,0.5]];portConstraint=eastwest;" parent="22" vertex="1">
                    <mxGeometry y="30" width="270" height="105" as="geometry"/>
                </mxCell>
                <mxCell id="24" value="" style="line;strokeWidth=1;fillColor=none;align=left;verticalAlign=middle;spacingTop=-1;spacingLeft=3;spacingRight=3;rotatable=0;labelPosition=right;points=[];portConstraint=eastwest;" parent="22" vertex="1">
                    <mxGeometry y="135" width="270" height="8" as="geometry"/>
                </mxCell>
                <mxCell id="25" value="Button (x:Integer,y:Integer,name:String)&lt;br&gt;+ render() : void&lt;br&gt;+ hitTest() : boolean" style="text;html=1;strokeColor=none;fillColor=none;align=left;verticalAlign=top;spacingLeft=4;spacingRight=4;overflow=hidden;rotatable=0;points=[[0,0.5],[1,0.5]];portConstraint=eastwest;" parent="22" vertex="1">
                    <mxGeometry y="143" width="270" height="107" as="geometry"/>
                </mxCell>
                <mxCell id="63" style="edgeStyle=orthogonalEdgeStyle;rounded=0;orthogonalLoop=1;jettySize=auto;html=1;endArrow=none;endFill=0;entryX=0.058;entryY=0.075;entryDx=0;entryDy=0;entryPerimeter=0;" parent="1" source="26" target="61" edge="1">
                    <mxGeometry relative="1" as="geometry">
                        <mxPoint x="370.0000000000002" y="250" as="targetPoint"/>
                        <Array as="points">
                            <mxPoint x="494" y="270"/>
                            <mxPoint x="291" y="270"/>
                        </Array>
                    </mxGeometry>
                </mxCell>
                <mxCell id="26" value="StatusBar" style="swimlane;fontStyle=0;align=center;verticalAlign=top;childLayout=stackLayout;horizontal=1;startSize=30;horizontalStack=0;resizeParent=1;resizeParentMax=0;resizeLast=0;collapsible=0;marginBottom=0;html=1;" parent="1" vertex="1">
                    <mxGeometry x="359" y="320" width="270" height="250" as="geometry"/>
                </mxCell>
                <mxCell id="27" value="# x : Integer&lt;br&gt;# y : Integer&lt;br&gt;# currentValue : Integer&lt;br&gt;# maxValue : Integer" style="text;html=1;strokeColor=none;fillColor=none;align=left;verticalAlign=top;spacingLeft=4;spacingRight=4;overflow=hidden;rotatable=0;points=[[0,0.5],[1,0.5]];portConstraint=eastwest;" parent="26" vertex="1">
                    <mxGeometry y="30" width="270" height="105" as="geometry"/>
                </mxCell>
                <mxCell id="28" value="" style="line;strokeWidth=1;fillColor=none;align=left;verticalAlign=middle;spacingTop=-1;spacingLeft=3;spacingRight=3;rotatable=0;labelPosition=right;points=[];portConstraint=eastwest;" parent="26" vertex="1">
                    <mxGeometry y="135" width="270" height="8" as="geometry"/>
                </mxCell>
                <mxCell id="29" value="StatusBar (x:Integer,y:Integer,maxValue:Integer)&lt;br&gt;+ render() : void&lt;br&gt;" style="text;html=1;strokeColor=none;fillColor=none;align=left;verticalAlign=top;spacingLeft=4;spacingRight=4;overflow=hidden;rotatable=0;points=[[0,0.5],[1,0.5]];portConstraint=eastwest;" parent="26" vertex="1">
                    <mxGeometry y="143" width="270" height="107" as="geometry"/>
                </mxCell>
                <mxCell id="34" value="HappinessBar" style="swimlane;fontStyle=0;align=center;verticalAlign=top;childLayout=stackLayout;horizontal=1;startSize=30;horizontalStack=0;resizeParent=1;resizeParentMax=0;resizeLast=0;collapsible=0;marginBottom=0;html=1;" parent="1" vertex="1">
                    <mxGeometry x="489" y="659" width="290" height="195" as="geometry"/>
                </mxCell>
                <mxCell id="35" value="..." style="text;html=1;strokeColor=none;fillColor=none;align=left;verticalAlign=top;spacingLeft=4;spacingRight=4;overflow=hidden;rotatable=0;points=[[0,0.5],[1,0.5]];portConstraint=eastwest;" parent="34" vertex="1">
                    <mxGeometry y="30" width="290" height="50" as="geometry"/>
                </mxCell>
                <mxCell id="36" value="" style="line;strokeWidth=1;fillColor=none;align=left;verticalAlign=middle;spacingTop=-1;spacingLeft=3;spacingRight=3;rotatable=0;labelPosition=right;points=[];portConstraint=eastwest;" parent="34" vertex="1">
                    <mxGeometry y="80" width="290" height="8" as="geometry"/>
                </mxCell>
                <mxCell id="37" value="HappinessBar (x:Integer,y:Integer,maxValue:Integer)&lt;br&gt;&amp;nbsp;" style="text;html=1;strokeColor=none;fillColor=none;align=left;verticalAlign=top;spacingLeft=4;spacingRight=4;overflow=hidden;rotatable=0;points=[[0,0.5],[1,0.5]];portConstraint=eastwest;" parent="34" vertex="1">
                    <mxGeometry y="88" width="290" height="107" as="geometry"/>
                </mxCell>
                <mxCell id="38" value="LevelBar" style="swimlane;fontStyle=0;align=center;verticalAlign=top;childLayout=stackLayout;horizontal=1;startSize=30;horizontalStack=0;resizeParent=1;resizeParentMax=0;resizeLast=0;collapsible=0;marginBottom=0;html=1;" parent="1" vertex="1">
                    <mxGeometry x="159" y="659" width="290" height="195" as="geometry"/>
                </mxCell>
                <mxCell id="39" value="..." style="text;html=1;strokeColor=none;fillColor=none;align=left;verticalAlign=top;spacingLeft=4;spacingRight=4;overflow=hidden;rotatable=0;points=[[0,0.5],[1,0.5]];portConstraint=eastwest;" parent="38" vertex="1">
                    <mxGeometry y="30" width="290" height="50" as="geometry"/>
                </mxCell>
                <mxCell id="40" value="" style="line;strokeWidth=1;fillColor=none;align=left;verticalAlign=middle;spacingTop=-1;spacingLeft=3;spacingRight=3;rotatable=0;labelPosition=right;points=[];portConstraint=eastwest;" parent="38" vertex="1">
                    <mxGeometry y="80" width="290" height="8" as="geometry"/>
                </mxCell>
                <mxCell id="41" value="LevelBar (x:Integer,y:Integer,maxValue:Integer)&lt;br&gt;&lt;br&gt;&amp;nbsp;" style="text;html=1;strokeColor=none;fillColor=none;align=left;verticalAlign=top;spacingLeft=4;spacingRight=4;overflow=hidden;rotatable=0;points=[[0,0.5],[1,0.5]];portConstraint=eastwest;" parent="38" vertex="1">
                    <mxGeometry y="88" width="290" height="107" as="geometry"/>
                </mxCell>
                <mxCell id="42" value="" style="endArrow=block;endSize=16;endFill=0;html=1;entryX=0.744;entryY=1.025;entryDx=0;entryDy=0;entryPerimeter=0;exitX=0.5;exitY=0;exitDx=0;exitDy=0;" parent="1" source="34" target="29" edge="1">
                    <mxGeometry width="160" relative="1" as="geometry">
                        <mxPoint x="389" y="600" as="sourcePoint"/>
                        <mxPoint x="549" y="600" as="targetPoint"/>
                        <Array as="points">
                            <mxPoint x="634" y="600"/>
                            <mxPoint x="560" y="600"/>
                        </Array>
                    </mxGeometry>
                </mxCell>
                <mxCell id="43" value="" style="endArrow=block;endSize=16;endFill=0;html=1;entryX=0.744;entryY=1.025;entryDx=0;entryDy=0;entryPerimeter=0;exitX=0.5;exitY=0;exitDx=0;exitDy=0;" parent="1" source="38" edge="1">
                    <mxGeometry width="160" relative="1" as="geometry">
                        <mxPoint x="633.12" y="659" as="sourcePoint"/>
                        <mxPoint x="559.0000000000001" y="572.6750000000001" as="targetPoint"/>
                        <Array as="points">
                            <mxPoint x="304" y="600"/>
                            <mxPoint x="559.12" y="600"/>
                        </Array>
                    </mxGeometry>
                </mxCell>
                <mxCell id="70" style="edgeStyle=orthogonalEdgeStyle;rounded=0;orthogonalLoop=1;jettySize=auto;html=1;endArrow=none;endFill=0;entryX=0.019;entryY=0.95;entryDx=0;entryDy=0;entryPerimeter=0;" parent="1" source="44" target="61" edge="1">
                    <mxGeometry relative="1" as="geometry">
                        <mxPoint x="190" y="270" as="targetPoint"/>
                        <Array as="points">
                            <mxPoint x="-225" y="270"/>
                            <mxPoint x="290" y="270"/>
                        </Array>
                    </mxGeometry>
                </mxCell>
                <mxCell id="44" value="Animal" style="swimlane;fontStyle=0;align=center;verticalAlign=top;childLayout=stackLayout;horizontal=1;startSize=30;horizontalStack=0;resizeParent=1;resizeParentMax=0;resizeLast=0;collapsible=0;marginBottom=0;html=1;" parent="1" vertex="1">
                    <mxGeometry x="-370" y="320" width="290" height="195" as="geometry"/>
                </mxCell>
                <mxCell id="45" value="- state : Integer&lt;br&gt;- x : Integer&lt;br&gt;- y : Integer" style="text;html=1;strokeColor=none;fillColor=none;align=left;verticalAlign=top;spacingLeft=4;spacingRight=4;overflow=hidden;rotatable=0;points=[[0,0.5],[1,0.5]];portConstraint=eastwest;" parent="44" vertex="1">
                    <mxGeometry y="30" width="290" height="50" as="geometry"/>
                </mxCell>
                <mxCell id="46" value="" style="line;strokeWidth=1;fillColor=none;align=left;verticalAlign=middle;spacingTop=-1;spacingLeft=3;spacingRight=3;rotatable=0;labelPosition=right;points=[];portConstraint=eastwest;" parent="44" vertex="1">
                    <mxGeometry y="80" width="290" height="8" as="geometry"/>
                </mxCell>
                <mxCell id="47" value="Animal (x:Integer,y:Integer)&lt;br&gt;+ renderl() : void&lt;br&gt;+ startrender() : void&lt;br&gt;&lt;br&gt;&lt;br&gt;&lt;br&gt;&amp;nbsp;" style="text;html=1;strokeColor=none;fillColor=none;align=left;verticalAlign=top;spacingLeft=4;spacingRight=4;overflow=hidden;rotatable=0;points=[[0,0.5],[1,0.5]];portConstraint=eastwest;" parent="44" vertex="1">
                    <mxGeometry y="88" width="290" height="107" as="geometry"/>
                </mxCell>
                <mxCell id="52" value="Care" style="swimlane;fontStyle=0;align=center;verticalAlign=top;childLayout=stackLayout;horizontal=1;startSize=30;horizontalStack=0;resizeParent=1;resizeParentMax=0;resizeLast=0;collapsible=0;marginBottom=0;html=1;" parent="1" vertex="1">
                    <mxGeometry x="-810" y="320" width="350" height="195" as="geometry"/>
                </mxCell>
                <mxCell id="53" value="- currentValue : Integer&lt;br&gt;- money : Integer" style="text;html=1;strokeColor=none;fillColor=none;align=left;verticalAlign=top;spacingLeft=4;spacingRight=4;overflow=hidden;rotatable=0;points=[[0,0.5],[1,0.5]];portConstraint=eastwest;" parent="52" vertex="1">
                    <mxGeometry y="30" width="350" height="50" as="geometry"/>
                </mxCell>
                <mxCell id="54" value="" style="line;strokeWidth=1;fillColor=none;align=left;verticalAlign=middle;spacingTop=-1;spacingLeft=3;spacingRight=3;rotatable=0;labelPosition=right;points=[];portConstraint=eastwest;" parent="52" vertex="1">
                    <mxGeometry y="80" width="350" height="8" as="geometry"/>
                </mxCell>
                <mxCell id="55" value="Care(currentValue:Integer,money:Integer)&lt;br&gt;+ feed(hitTest:Boolean) : Integer&lt;br&gt;+ drink(hitTest:Boolean) : Integer" style="text;html=1;strokeColor=none;fillColor=none;align=left;verticalAlign=top;spacingLeft=4;spacingRight=4;overflow=hidden;rotatable=0;points=[[0,0.5],[1,0.5]];portConstraint=eastwest;" parent="52" vertex="1">
                    <mxGeometry y="88" width="350" height="107" as="geometry"/>
                </mxCell>
                <mxCell id="56" value="Display" style="swimlane;fontStyle=0;align=center;verticalAlign=top;childLayout=stackLayout;horizontal=1;startSize=30;horizontalStack=0;resizeParent=1;resizeParentMax=0;resizeLast=0;collapsible=0;marginBottom=0;html=1;" parent="1" vertex="1">
                    <mxGeometry x="159" y="-110" width="290" height="340" as="geometry"/>
                </mxCell>
                <mxCell id="57" value="- x : Integer&lt;br&gt;- y : Integer&lt;br&gt;- screenState : Integer&lt;br&gt;- money : Integer&lt;br&gt;" style="text;html=1;strokeColor=none;fillColor=none;align=left;verticalAlign=top;spacingLeft=4;spacingRight=4;overflow=hidden;rotatable=0;points=[[0,0.5],[1,0.5]];portConstraint=eastwest;" parent="56" vertex="1">
                    <mxGeometry y="30" width="290" height="160" as="geometry"/>
                </mxCell>
                <mxCell id="58" value="" style="line;strokeWidth=1;fillColor=none;align=left;verticalAlign=middle;spacingTop=-1;spacingLeft=3;spacingRight=3;rotatable=0;labelPosition=right;points=[];portConstraint=eastwest;" parent="56" vertex="1">
                    <mxGeometry y="190" width="290" height="8" as="geometry"/>
                </mxCell>
                <mxCell id="59" value="UI()&lt;br&gt;+ mainScreen() : void&lt;br&gt;+ startScreen():void&lt;br&gt;+ background(): void&lt;br&gt;+ coin():void&lt;br&gt;+showKey(): string&lt;br&gt;+systemClicked():void&lt;br&gt;+systemTyped()void" style="text;html=1;strokeColor=none;fillColor=none;align=left;verticalAlign=top;spacingLeft=4;spacingRight=4;overflow=hidden;rotatable=0;points=[[0,0.5],[1,0.5]];portConstraint=eastwest;" parent="56" vertex="1">
                    <mxGeometry y="198" width="290" height="142" as="geometry"/>
                </mxCell>
                <mxCell id="61" value="1" style="text;html=1;align=center;verticalAlign=middle;resizable=0;points=[];autosize=1;" parent="1" vertex="1">
                    <mxGeometry x="290" y="235" width="20" height="20" as="geometry"/>
                </mxCell>
                <mxCell id="62" value="*" style="text;html=1;align=center;verticalAlign=middle;resizable=0;points=[];autosize=1;" parent="1" vertex="1">
                    <mxGeometry x="184" y="290" width="20" height="20" as="geometry"/>
                </mxCell>
                <mxCell id="64" value="*" style="text;html=1;align=center;verticalAlign=middle;resizable=0;points=[];autosize=1;" parent="1" vertex="1">
                    <mxGeometry x="490" y="290" width="20" height="20" as="geometry"/>
                </mxCell>
                <mxCell id="66" style="edgeStyle=orthogonalEdgeStyle;rounded=0;orthogonalLoop=1;jettySize=auto;html=1;entryX=0;entryY=0.5;entryDx=0;entryDy=0;endArrow=none;endFill=0;" parent="1" source="55" target="47" edge="1">
                    <mxGeometry relative="1" as="geometry"/>
                </mxCell>
                <mxCell id="67" value="&amp;lt;-- hat" style="text;html=1;align=center;verticalAlign=middle;resizable=0;points=[];autosize=1;" parent="1" vertex="1">
                    <mxGeometry x="-450" y="440" width="50" height="20" as="geometry"/>
                </mxCell>
                <mxCell id="71" value="1" style="text;html=1;align=center;verticalAlign=middle;resizable=0;points=[];autosize=1;" parent="1" vertex="1">
                    <mxGeometry x="-250" y="300" width="20" height="20" as="geometry"/>
                </mxCell>
            </root>
        </mxGraphModel>
    </diagram>
</mxfile>